<?xml version="1.0" encoding="UTF-8" standalone="no"?>
<!-- Created with Inkscape (http://www.inkscape.org/) -->

<svg
   xmlns:dc="http://purl.org/dc/elements/1.1/"
   xmlns:cc="http://creativecommons.org/ns#"
   xmlns:rdf="http://www.w3.org/1999/02/22-rdf-syntax-ns#"
   xmlns:svg="http://www.w3.org/2000/svg"
   xmlns="http://www.w3.org/2000/svg"
   xmlns:sodipodi="http://sodipodi.sourceforge.net/DTD/sodipodi-0.dtd"
   xmlns:inkscape="http://www.inkscape.org/namespaces/inkscape"
   width="52.883175mm"
   height="17.119741mm"
   viewBox="0 0 52.883175 17.119741"
   version="1.1"
   id="svg9314"
   inkscape:version="0.92.1 r"
   sodipodi:docname="fiberhome.svg">
  <defs
     id="defs9308" />
  <sodipodi:namedview
     id="base"
     pagecolor="#ffffff"
     bordercolor="#666666"
     borderopacity="1.0"
     inkscape:pageopacity="0.0"
     inkscape:pageshadow="2"
     inkscape:zoom="0.98994949"
     inkscape:cx="-234.93422"
     inkscape:cy="149.22957"
     inkscape:document-units="mm"
     inkscape:current-layer="layer1"
     showgrid="false"
     inkscape:window-width="1920"
     inkscape:window-height="1027"
     inkscape:window-x="0"
     inkscape:window-y="27"
     inkscape:window-maximized="1"
     fit-margin-top="0"
     fit-margin-left="0"
     fit-margin-right="0"
     fit-margin-bottom="0" />
  <metadata
     id="metadata9311">
    <rdf:RDF>
      <cc:Work
         rdf:about="">
        <dc:format>image/svg+xml</dc:format>
        <dc:type
           rdf:resource="http://purl.org/dc/dcmitype/StillImage" />
        <dc:title></dc:title>
      </cc:Work>
    </rdf:RDF>
  </metadata>
  <g
     inkscape:label="Layer 1"
     inkscape:groupmode="layer"
     id="layer1"
     transform="translate(-52.126065,-114.05079)">
    <g
       id="g10036"
       transform="translate(-1.143378,17.717634)">
      <path
         sodipodi:nodetypes="sssssccssscssscsssscccccscccsscccccccccscccscscccccccccsccssscccssscccscsccscccccccccccccccccscssccccccssssssssscccscssscscccccccccscc"
         inkscape:connector-curvature="0"
         id="path9948"
         d="m 53.269443,113.10198 c 0,-0.44617 1.737675,-9.49723 1.981497,-10.32106 0.144956,-0.48978 0.578768,-0.61736 2.09922,-0.61736 1.654082,0 1.916505,0.0927 1.916505,0.6767 0,1.34917 -0.402126,1.79274 -1.625243,1.79274 -0.658339,0 -1.199147,0.11907 -1.201796,0.26459 -0.0026,0.14552 -0.10054,0.62177 -0.217534,1.05833 -0.188393,0.70299 -0.08268,0.79375 0.924504,0.79375 0.892062,0 1.09106,0.1203 0.92309,0.55802 -0.117773,0.30691 -0.214132,0.7731 -0.214132,1.03598 0,0.27991 -0.469376,0.52377 -1.132753,0.58851 -1.012259,0.0988 -1.162203,0.26065 -1.409599,1.52166 -0.551673,2.81194 -0.635398,2.99861 -1.344925,2.99861 -0.384359,0 -0.698834,-0.15771 -0.698834,-0.35047 z m 4.938613,0.0859 c -1.51e-4,-0.14553 0.339611,-1.97115 0.755027,-4.05695 0.635553,-3.1911 0.85932,-3.79236 1.411386,-3.79236 0.806498,0 0.812256,-0.2522 -0.09867,4.32153 -0.635553,3.1911 -0.859319,3.79236 -1.411386,3.79236 -0.360846,0 -0.656208,-0.11906 -0.65636,-0.26458 z m 2.839271,-0.0669 c 0.04946,-1.2532 1.722719,-10.36856 2.025846,-10.67169 0.501377,-0.50137 1.196768,-0.006 1.003131,0.71412 -0.651531,2.4241 -0.636323,2.55645 0.267679,2.32956 0.65813,-0.16518 0.959948,-0.0332 1.276464,0.55823 0.523407,0.978 0.07313,4.79374 -0.886403,6.37157 -0.574668,0.94497 -0.173526,0.58375 -1.475858,1.01319 -0.462347,-0.007 -0.928122,-0.41586 -0.912119,-1.04846 0.0037,-0.14689 -0.06078,0.66915 -0.350422,0.87545 -0.289647,0.20631 -0.950498,-0.0867 -0.948318,-0.14197 z m 2.946341,-3.27231 c 0.174505,-0.69143 0.202854,-1.5525 0.063,-1.91348 -0.24586,-0.6346 -0.270973,-0.63365 -0.758253,0.0285 -0.639671,0.86918 -0.689944,3.49185 -0.063,3.28657 0.242535,-0.0794 0.583749,-0.7101 0.758253,-1.40154 z m 2.323075,3.06803 c -0.651493,-0.785 -0.212633,-4.10356 0.780837,-5.90453 0.72334,-1.31127 0.976746,-1.4972 2.040542,-1.4972 1.067723,0 1.254407,0.13867 1.543456,1.14653 0.20237,0.70562 0.203096,1.58743 0.0019,2.29305 -0.294612,1.03318 -0.474034,1.15725 -1.814921,1.25501 -1.213366,0.0885 -1.487972,0.23789 -1.487972,0.80973 0,0.61038 0.160023,0.67124 1.234722,0.46963 0.951918,-0.17859 1.234722,-0.11397 1.234722,0.28211 0,1.38953 -2.624581,2.24056 -3.533255,1.14567 z m 3.062003,-4.60322 c 0.116688,-0.30409 0.02164,-0.74065 -0.21121,-0.97014 -0.326614,-0.3219 -0.536293,-0.26429 -0.917487,0.25207 -0.271764,0.36814 -0.410458,0.8047 -0.308208,0.97014 0.307472,0.4975 1.210025,0.33917 1.436905,-0.25207 z m 2.029628,1.17432 c 0.584879,-3.12315 0.872681,-3.98975 1.355936,-4.08281 0.337406,-0.065 0.613466,0.0536 0.613466,0.26349 0,0.25696 0.22526,0.24096 0.689512,-0.049 0.379231,-0.23684 0.776822,-0.3433 0.883535,-0.23659 0.333337,0.33334 -0.559909,2.4251 -1.035592,2.4251 -0.501462,0 -1.080928,1.29229 -1.423679,3.175 -0.386776,2.12454 -0.554247,2.46945 -1.199041,2.46945 -0.593418,0 -0.587281,-0.20999 0.115863,-3.96467 z m 2.783887,3.20147 c 0.110415,-0.45337 0.534968,-2.64993 0.94345,-4.88125 0.864359,-4.72151 1.188802,-5.64444 1.984235,-5.64444 0.503942,0 0.549658,0.28849 0.339742,2.1439 -0.23706,2.09534 -0.224107,2.14129 0.571794,2.02847 0.645269,-0.0915 0.899329,-0.4597 1.223639,-1.77354 0.22511,-0.91197 0.512291,-1.82478 0.638181,-2.02848 0.304003,-0.49188 1.245585,-0.47562 1.245585,0.0215 0,0.64787 -1.82072,10.34693 -1.995937,10.63245 -0.0893,0.14552 -0.48771,0.26458 -0.885349,0.26458 -0.573168,0 -0.682,-0.16448 -0.525216,-0.79375 0.108771,-0.43656 0.30502,-1.46844 0.43611,-2.29306 0.228178,-1.43534 0.199839,-1.4993 -0.664304,-1.4993 -0.819994,0 -0.947349,0.20189 -1.390805,2.20486 -0.41188,1.86034 -0.615795,2.22341 -1.305018,2.32361 -0.698218,0.1015 -0.787703,-9.9e-4 -0.616107,-0.70556 z m 6.80798,0.20518 c -0.671284,-1.74934 0.09685,-5.43977 1.441499,-6.9256 0.752017,-0.83097 2.107421,-0.80344 2.56529,0.0521 0.801716,1.49802 0.109727,5.25409 -1.243444,6.74933 -0.748644,0.82724 -2.463975,0.90432 -2.763345,0.12418 z m 2.824196,-3.58657 c 0.247279,-1.31811 -0.296709,-2.26592 -0.934469,-1.62816 -0.495174,0.49517 -0.837768,2.77081 -0.534821,3.55248 0.23248,0.59984 0.271233,0.59745 0.744726,-0.0459 0.274716,-0.37326 0.60077,-1.21856 0.724564,-1.87844 z m 1.547783,3.80432 c 0,-0.18715 0.31702,-1.97309 0.704488,-3.96875 0.387469,-1.99566 0.704969,-3.66817 0.705556,-3.71668 5.87e-4,-0.0485 0.318567,-0.0882 0.706623,-0.0882 0.388055,0 0.705555,0.16009 0.705555,0.35577 0,0.21064 0.296577,0.17466 0.72704,-0.0882 0.613692,-0.37474 0.798954,-0.3471 1.188283,0.17731 0.408368,0.55006 0.511947,0.56017 0.903654,0.0882 0.649905,-0.78309 1.654027,-0.65093 1.889273,0.24865 0.112434,0.42996 -0.03514,1.89839 -0.327917,3.2632 -0.292792,1.3648 -0.60742,2.83865 -0.699171,3.27521 -0.100527,0.4783 -0.427178,0.79375 -0.821929,0.79375 -0.618868,0 -0.62894,-0.12196 -0.182062,-2.20486 0.576975,-2.68929 0.606965,-3.43959 0.137488,-3.43959 -0.482543,0 -0.937397,1.16406 -1.412935,3.61598 -0.316611,1.63248 -0.526267,2.02847 -1.073958,2.02847 -0.800205,0 -0.794705,0.10253 -0.151377,-2.82222 0.631977,-2.87314 0.631667,-2.82223 0.01722,-2.82223 -0.354208,0 -0.698806,0.86957 -1.118411,2.82223 -0.489626,2.2785 -0.73082,2.82222 -1.251942,2.82222 -0.355009,0 -0.645474,-0.15312 -0.645474,-0.34027 z m 8.083818,-0.42148 c -0.572184,-1.06913 -0.165082,-3.91828 0.81431,-5.69909 0.658573,-1.19747 1.027571,-1.49753 1.951683,-1.58702 1.476844,-0.14302 2.043233,0.94478 1.696343,3.258 -0.242165,1.61486 -0.242165,1.61486 -1.808046,1.61486 -1.314831,0 -1.565886,0.10978 -1.565886,0.68473 0,0.79419 0.55443,1.25631 0.878389,0.73213 0.326584,-0.52842 1.591056,-0.43626 1.591056,0.11596 0,1.50813 -2.845118,2.21219 -3.557849,0.88043 z m 3.086598,-4.37724 c 0.116688,-0.30409 0.02166,-0.74065 -0.211212,-0.97014 -0.326612,-0.3219 -0.536293,-0.26429 -0.917487,0.25207 -0.271762,0.36814 -0.410457,0.8047 -0.308207,0.97014 0.30747,0.4975 1.210024,0.33917 1.436906,-0.25207 z M 60.102647,103.4865 c 0.116995,-0.43657 0.214885,-0.91282 0.217534,-1.05834 0.0065,-0.35883 0.976723,-0.33705 1.201702,0.027 0.380311,0.61535 -0.233741,1.82511 -0.926397,1.82511 -0.559529,0 -0.66153,-0.16428 -0.492839,-0.79375 z"
         style="fill:#112e64;fill-opacity:1;stroke-width:0.35277778" />
      <path
         sodipodi:nodetypes="sccccscs"
         inkscape:connector-curvature="0"
         id="path9948-0"
         d="m 100.29203,104.69121 c 1.61202,-1.47749 3.06257,-3.17987 2.32503,-4.30551 -2.04632,-3.123067 -14.626313,-4.264315 -28.973409,0.26763 -0.485069,0.0984 -0.175083,-0.0567 0.688861,-0.34478 11.797389,-5.581021 22.621555,-4.049007 27.420378,-2.746807 3.59464,0.97544 5.24894,2.822627 3.97129,4.434337 -0.64226,0.81019 -3.70256,2.61006 -5.29227,3.27236 -1.411095,0.5879 -1.411095,0.5879 -0.13988,-0.57723 z"
         style="fill:#df5616;fill-opacity:1;stroke-width:0.35277778" />
    </g>
  </g>
</svg>
